<svg xmlns="http://www.w3.org/2000/svg" width="14" height="15"><path fill="#B1BFC7" fill-rule="evenodd" d="M11 2h1.993C13.55 2 14 2.447 14 2.999V14c0 .552-.45.999-1.007.999H1.007A1.003 1.003 0 010 14.001V3c0-.553.45-1 1.007-1H3V.49A.5.5 0 013.5 0c.276 0 .5.215.5.49V2h6V.49a.5.5 0 01.5-.49c.276 0 .5.215.5.49V2zm0 1v.51a.5.5 0 01-.5.49.492.492 0 01-.5-.49V3H4v.51a.5.5 0 01-.5.49.492.492 0 01-.5-.49V3H1.5c-.271 0-.5.222-.5.495v2.01c0 .28.224.495.5.495h11c.271 0 .5-.222.5-.495v-2.01A.494.494 0 0012.5 3H11zM1 7.503v5.994c0 .27.224.503.5.503h11c.271 0 .5-.225.5-.503V7.503A.507.507 0 0012.5 7h-11c-.271 0-.5.225-.5.503zM3 8.5c0-.276.214-.5.505-.5h.99c.279 0 .505.232.505.5 0 .276-.214.5-.505.5h-.99A.508.508 0 013 8.5zm3 0c0-.276.214-.5.505-.5h.99c.279 0 .505.232.505.5 0 .276-.214.5-.505.5h-.99A.508.508 0 016 8.5zm3 0c0-.276.214-.5.505-.5h.99c.279 0 .505.232.505.5 0 .276-.214.5-.505.5h-.99A.508.508 0 019 8.5zm-6 2c0-.276.214-.5.505-.5h.99c.279 0 .505.232.505.5 0 .276-.214.5-.505.5h-.99A.508.508 0 013 10.5zm3 0c0-.276.214-.5.505-.5h.99c.279 0 .505.232.505.5 0 .276-.214.5-.505.5h-.99A.508.508 0 016 10.5zm3 0c0-.276.214-.5.505-.5h.99c.279 0 .505.232.505.5 0 .276-.214.5-.505.5h-.99A.508.508 0 019 10.5zm-6 2c0-.276.214-.5.505-.5h.99c.279 0 .505.232.505.5 0 .276-.214.5-.505.5h-.99A.508.508 0 013 12.5zm3 0c0-.276.214-.5.505-.5h.99c.279 0 .505.232.505.5 0 .276-.214.5-.505.5h-.99A.508.508 0 016 12.5zm3 0c0-.276.214-.5.505-.5h.99c.279 0 .505.232.505.5 0 .276-.214.5-.505.5h-.99A.508.508 0 019 12.5z"/></svg>