<svg width="141.75" height="36" viewBox="0 0 126 32" xmlns="http://www.w3.org/2000/svg" xmlns:xlink="http://www.w3.org/1999/xlink"><defs><path d="M16.044 32C7.184 32 0 24.837 0 16S7.183 0 16.044 0s16.044 7.163 16.044 16-7.183 16-16.044 16zm.054-8c4.46 0 8.075-3.606 8.075-8.053 0-4.448-3.615-8.054-8.075-8.054-4.46 0-8.076 3.606-8.076 8.054 0 4.447 3.616 8.053 8.076 8.053z" id="a"/></defs><g fill="none" fill-rule="evenodd"><circle fill="#FFF" cx="17" cy="16" r="10"/><mask id="b" fill="#fff"><use xlink:href="#a"/></mask><use fill-opacity=".9" fill="#D8D8D8" xlink:href="#a"/><path fill="#FF6FAF" mask="url(#b)" d="M16.044-.73V16L34.106 3.51 20.148-2z"/><path fill="#00BC7C" mask="url(#b)" d="M16.02 15.918l17.183-11.97-.095 15.173-4.34 10.8-3.248-.763z"/><path fill="#FE5A61" mask="url(#b)" d="M16.027 15.963L27.461 31.3l-11.326 2.006-8.602-2.61z"/><path fill="#40C3F9" mask="url(#b)" d="M16.108 15.983L7.211 32.107l-7.554-7.864.31-4.292z"/><path fill="#FFC053" mask="url(#b)" d="M16.006 15.99l-19.33 5.154 2.156-11.352L6.02.477l10.041-1.863z"/><ellipse fill-opacity=".09" fill="#000" mask="url(#b)" cx="16.044" cy="16" rx="9.947" ry="9.92"/><path d="M16.562 15.268c1.742.484 2.37.945 2.37 2.362 0 1.628-.912 2.429-2.274 2.578l-.002.984h-1.183v-.991c-.97-.083-2.018-.293-2.018-.293l.133-1.078s1.632.218 2.49.218c1.029 0 1.5-.46 1.5-1.333 0-.703-.375-.945-1.645-1.248-1.789-.46-2.563-1.005-2.563-2.447 0-1.485.869-2.195 2.224-2.336v-.91h1.185v.912c.948.074 1.972.262 1.972.262l-.11 1.091s-1.692-.194-2.393-.194c-1.016 0-1.536.364-1.536 1.078 0 .775.436.957 1.85 1.345zM45.615 14.696c3.586.998 4.88 1.947 4.88 4.865 0 3.353-1.878 5.001-4.684 5.31l-.004 2.025h-2.435v-2.04c-1.998-.17-4.157-.603-4.157-.603l.275-2.222s3.361.45 5.128.45c2.118 0 3.089-.949 3.089-2.746 0-1.446-.772-1.945-3.387-2.57-3.685-.947-5.28-2.07-5.28-5.038 0-3.058 1.79-4.522 4.58-4.81V5.44h2.441v1.88c1.952.151 4.06.54 4.06.54l-.224 2.246s-3.486-.4-4.93-.4c-2.091 0-3.162.749-3.162 2.221 0 1.596.896 1.971 3.81 2.77zm12.276-.373c-1.32 0-2.713.698-2.713.698v7.36c.124.025 1.32.199 2.191.199 2.315 0 2.989-1.222 2.989-4.291 0-2.919-.922-3.966-2.467-3.966zm-.349 10.603c-1.02 0-2.216-.2-2.364-.226v5.316h-2.716v-17.84h2.691v.774s1.717-1.048 3.212-1.048c3.237 0 4.756 1.846 4.756 6.387 0 5.14-1.742 6.637-5.579 6.637zm12.801-10.779c-1.843 0-2.665.924-2.69 3.32h5.254c0-2.496-.746-3.32-2.564-3.32zm-2.665 5.414c.026 1.996.772 2.995 2.84 2.995 1.966 0 4.581-.35 4.581-.35l.05 2.021s-2.84.699-5.03.699c-3.736 0-5.18-1.997-5.18-6.388 0-4.565 1.967-6.636 5.404-6.636 3.486 0 5.23 1.82 5.23 5.713l-.175 1.946h-7.72zm17.804-1.522c0-2.494-.323-3.716-2.215-3.716-1.444 0-2.813.648-2.813.648v9.68h-2.716V12.176h2.691v.774s1.818-1.048 3.436-1.048c3.462 0 4.308 1.97 4.308 6.063v6.686h-2.69v-6.612zm12.776-3.542c-.15-.025-1.593-.25-2.639-.25-1.844 0-2.64 1.348-2.64 4.191 0 3.194.872 4.066 2.39 4.066 1.42 0 2.889-.622 2.889-.622v-7.385zm.025 9.505s-1.817.924-3.337.924c-3.187 0-4.707-1.672-4.707-6.488 0-4.514 1.62-6.536 5.18-6.536.997 0 2.69.299 2.839.324V6.988h2.716V24.65h-2.69v-.649zm10.285-9.855c-1.843 0-2.665.924-2.69 3.32h5.255c0-2.496-.748-3.32-2.565-3.32zm-2.665 5.414c.025 1.996.773 2.995 2.84 2.995 1.967 0 4.58-.35 4.58-.35l.052 2.021s-2.84.699-5.03.699c-3.736 0-5.18-1.997-5.18-6.388 0-4.565 1.967-6.636 5.403-6.636 3.486 0 5.23 1.82 5.23 5.713l-.174 1.946h-7.721zm14.867-5.414c-1.842 0-2.664.924-2.69 3.32h5.255c0-2.496-.747-3.32-2.565-3.32zm5.056 5.414h-7.72c.026 1.996.772 2.995 2.838 2.995 1.968 0 4.583-.35 4.583-.35l.05 2.021s-2.84.699-5.032.699c-3.734 0-5.178-1.997-5.178-6.388 0-4.565 1.966-6.636 5.403-6.636 3.487 0 5.23 1.82 5.23 5.713l-.174 1.946z" fill="#2A3E49"/></g></svg>